<?xml version="1.0" standalone="no"?>
<!DOCTYPE svg PUBLIC "-//W3C//DTD SVG 1.1//EN" "http://www.w3.org/Graphics/SVG/1.1/DTD/svg11.dtd" >
<svg xmlns="http://www.w3.org/2000/svg">
<metadata></metadata>
<defs>
<font id="foundry_form_sans_mediumMd" horiz-adv-x="1138" >
<font-face units-per-em="2048" ascent="1536" descent="-512" />
<missing-glyph horiz-adv-x="512" />
<glyph unicode="&#xfb01;" horiz-adv-x="1171" d="M31 831v117l170 23v159q0 107 9.5 157.5t37.5 90.5q70 105 223 105q102 0 236 -35l-21 -125q-70 10 -156 10q-77 0 -104 -37t-27 -141v-186h629v-969h-201v831h-428v-831h-198v831h-170zM807 1278q0 50 35.5 85.5t85.5 35.5t85.5 -35t35.5 -86q0 -50 -35 -85.5t-84 -35.5 q-51 0 -87 35t-36 86z" />
<glyph unicode="&#xfb02;" horiz-adv-x="1169" d="M31 831v117l170 23v159q0 107 9.5 157.5t37.5 90.5q70 105 223 105q102 0 236 -35l-21 -125q-70 10 -156 10q-77 0 -104 -37t-27 -141v-186h428v485h201v-1454h-201v831h-428v-831h-198v831h-170z" />
<glyph unicode="&#xfb03;" horiz-adv-x="1798" d="M31 831v117l170 23v159q0 107 9.5 157.5t37.5 90.5q70 105 223 105q102 0 236 -35l-21 -125q-70 10 -156 10q-77 0 -104 -37t-27 -141v-186h428v161q0 107 9.5 157.5t37.5 90.5q70 105 224 105q101 0 235 -35l-20 -125q-70 10 -156 10q-77 0 -104 -37t-27 -141v-186h629 v-969h-201v831h-428v-831h-199v831h-428v-831h-198v831h-170zM1434 1278q0 51 34.5 86t85.5 35t86 -35t35 -86q0 -50 -35 -85.5t-84 -35.5q-51 0 -86.5 35t-35.5 86z" />
<glyph unicode="&#xfb04;" horiz-adv-x="1796" d="M31 831v117l170 23v159q0 107 9.5 157.5t37.5 90.5q70 105 223 105q102 0 236 -35l-21 -125q-70 10 -156 10q-77 0 -104 -37t-27 -141v-186h428v161q0 107 9.5 157.5t37.5 90.5q70 105 224 105q101 0 235 -35l-20 -125q-70 10 -156 10q-77 0 -104 -37t-27 -141v-186h428 v485h201v-1454h-201v831h-428v-831h-199v831h-428v-831h-198v831h-170z" />
<glyph horiz-adv-x="2048" />
<glyph horiz-adv-x="2048" />
<glyph unicode="&#xd;" horiz-adv-x="2048" />
<glyph unicode=" "  horiz-adv-x="512" />
<glyph unicode="&#x09;" horiz-adv-x="512" />
<glyph unicode="&#xa0;" horiz-adv-x="512" />
<glyph unicode="!" horiz-adv-x="540" d="M147 104q0 51 36 87t87 36t87 -36t36 -87t-36 -86.5t-87 -35.5t-87 35.5t-36 86.5zM147 1366h244l-43 -983h-155z" />
<glyph unicode="&#x22;" horiz-adv-x="845" d="M164 944v422h184v-422h-184zM498 944v422h184v-422h-184z" />
<glyph unicode="#" d="M94 561l15 129h190l27 258h-187l15 127h188l35 291h162l-35 -291h205l34 291h156l-35 -291h178l-14 -127h-178l-31 -258h178l-14 -129h-178l-33 -293h-156l33 293h-205l-34 -293h-162l35 293h-189zM459 690h205l28 258h-203z" />
<glyph unicode="$" d="M82 74l39 145q216 -57 364 -57v459q-198 51 -284 134t-86 238q0 160 97 255.5t273 117.5v190h142v-190q155 -7 327 -55l-30 -142q-220 43 -297 43v-417q103 -26 151 -43.5t90 -44.5q152 -98 152 -297q0 -106 -47.5 -194t-130.5 -140t-215 -70v-266h-142v260 q-184 7 -403 74zM322 1016q0 -74 39 -115t124 -67v366q-77 -12 -120 -60t-43 -124zM627 168q182 38 182 217q0 82 -40.5 124.5t-141.5 72.5v-414z" />
<glyph unicode="%" horiz-adv-x="1792" d="M78 1001q0 170 85 271.5t240 101.5q161 0 247.5 -99t86.5 -267q0 -174 -84 -274.5t-243 -100.5q-165 0 -248.5 97t-83.5 271zM244 999q0 -122 39 -182.5t123 -60.5q88 0 123.5 62.5t35.5 193.5q0 123 -37 182t-120 59q-87 0 -125.5 -63.5t-38.5 -190.5zM346 12l977 1422 l125 -86l-979 -1422zM1057 356q0 170 85 271.5t240 101.5q161 0 247.5 -99.5t86.5 -267.5q0 -174 -84 -274t-243 -100q-165 0 -248.5 97t-83.5 271zM1223 354q0 -122 39 -182.5t122 -60.5q88 0 124 62.5t36 193.5q0 122 -37.5 181.5t-120.5 59.5q-87 0 -125 -63.5 t-38 -190.5z" />
<glyph unicode="&#x26;" horiz-adv-x="1345" d="M80 369q0 148 72.5 235t230.5 144q-87 103 -119.5 171.5t-32.5 153.5q0 146 104.5 231t274.5 85q162 0 254 -76t92 -215q0 -72 -17 -125.5t-56.5 -96t-93.5 -75t-138 -68.5q311 -355 334 -373q72 116 86 299h148q0 -105 -36.5 -212t-101.5 -197q49 -55 97 -89.5 t112 -66.5l-57 -123q-146 17 -279 150q-97 -66 -146 -89q-126 -59 -312 -59q-193 0 -304.5 105.5t-111.5 290.5zM287 373q0 -118 71.5 -182t202.5 -64q160 0 291 98q-44 43 -78 84l-303 336q-104 -55 -144 -113t-40 -159zM418 1100q0 -27 7.5 -54.5t15 -46.5t27.5 -48.5 t28.5 -41t35.5 -44.5t33 -40q112 56 158.5 113.5t46.5 151.5q0 78 -44 119.5t-126 41.5q-80 0 -131 -42t-51 -109z" />
<glyph unicode="'" horiz-adv-x="512" d="M164 944v422h184v-422h-184z" />
<glyph unicode="(" horiz-adv-x="716" d="M102 582q0 506 211 688q62 53 137.5 81.5t190.5 41.5l21 -136q-91 -23 -140.5 -52t-89.5 -83q-62 -84 -88.5 -216t-26.5 -347q0 -236 36.5 -376t110.5 -210.5t206 -103.5l-19 -135q-294 24 -421.5 225.5t-127.5 622.5z" />
<glyph unicode=")" horiz-adv-x="716" d="M47 -131q132 33 206 103.5t110 210t36 376.5q0 235 -32.5 375t-108.5 219q-38 39 -82 61t-123 43l23 136q115 -13 190 -41.5t137 -81.5q211 -182 211 -688q0 -421 -127 -622.5t-421 -225.5z" />
<glyph unicode="*" horiz-adv-x="1024" d="M170 1098l39 108l244 -84l6 250h110l9 -250l241 84l35 -108l-233 -97l151 -204l-94 -66l-160 203l-147 -203l-95 66l140 204z" />
<glyph unicode="+" d="M92 510v152h397v401h160v-401h398v-152h-398v-401h-160v401h-397z" />
<glyph unicode="," horiz-adv-x="512" d="M12 -244l138 430h249l-254 -481z" />
<glyph unicode="-" horiz-adv-x="813" d="M100 510v152h613v-152h-613z" />
<glyph unicode="." horiz-adv-x="512" d="M133 104q0 51 36 87t87 36t87 -36t36 -87t-36 -86.5t-87 -35.5t-87 35.5t-36 86.5z" />
<glyph unicode="/" d="M82 -209l823 1628l152 -71l-826 -1635z" />
<glyph unicode="0" d="M96 688q0 341 116 521t353 180q477 0 477 -697q0 -354 -113.5 -533t-355.5 -179q-477 0 -477 708zM311 672q0 -272 58.5 -400.5t197.5 -128.5q147 0 203.5 133t56.5 426q0 268 -59.5 396.5t-198.5 128.5q-144 0 -201 -134t-57 -421z" />
<glyph unicode="1" d="M168 1325l534 74v-1399h-204v1219l-312 -29z" />
<glyph unicode="2" d="M109 0v137l245 234q124 117 196 196.5t113.5 148.5t54.5 124t13 129q0 134 -59.5 194t-186.5 60q-67 0 -135.5 -12t-197.5 -42l-31 138q257 82 440 82q189 0 289 -100t100 -300q0 -73 -12 -133t-43.5 -120.5t-73.5 -115.5t-114.5 -127.5t-153.5 -146.5t-203 -183 q-4 -3 -6 -5h627v-158h-862z" />
<glyph unicode="3" d="M104 31l23 141q219 -35 340 -35q149 0 218 66t69 200q0 131 -75.5 180.5t-277.5 49.5q-17 0 -46 -1t-38 -1v147q141 3 196.5 9t96.5 28q111 57 111 213q0 105 -54 152t-167 47q-99 0 -340 -49l-31 137q268 76 438 76q169 0 265 -84.5t96 -247.5q0 -138 -72.5 -228.5 t-200.5 -113.5q316 -40 316 -324q0 -212 -122 -312.5t-345 -100.5q-166 0 -400 51z" />
<glyph unicode="4" d="M80 338v143l541 885h282v-874h156v-154h-156v-338h-198v338h-625zM276 492h429v718z" />
<glyph unicode="5" d="M119 29l22 143q190 -37 338 -37q147 0 218 65.5t71 209.5q0 146 -80.5 209t-249.5 63q-116 0 -266 -20v704h760v-149h-563v-396q88 10 151 10q224 0 345.5 -101t121.5 -310q0 -221 -131.5 -333t-359.5 -112q-156 0 -377 54z" />
<glyph unicode="6" d="M106 649q0 126 19 236t60.5 203.5t102 159.5t148 103.5t195.5 37.5q72 0 176.5 -19t177.5 -43l-31 -133q-159 39 -284 39q-174 0 -250 -108t-88 -349q129 36 201 51t143 15q161 0 258.5 -105t97.5 -291q0 -219 -121 -345t-325 -126q-236 0 -358 176.5t-122 497.5z M328 637q0 -254 62 -379t208 -125q112 0 166.5 79t54.5 222q0 122 -53.5 183t-169.5 61q-94 0 -268 -41z" />
<glyph unicode="7" d="M106 1214v152h906v-139l-602 -1256l-183 72l568 1171h-689z" />
<glyph unicode="8" d="M98 373q0 274 215 342q-79 36 -124.5 114t-45.5 181q0 178 114.5 277t311.5 99q198 0 310 -90t112 -260q0 -120 -46.5 -203.5t-137.5 -113.5q128 -46 180.5 -118.5t52.5 -205.5q0 -199 -125.5 -307t-347.5 -108q-228 0 -348.5 98.5t-120.5 294.5zM289 389 q0 -256 291 -256q123 0 193.5 60.5t70.5 171.5q0 49 -14.5 87.5t-35.5 62.5t-58 44.5t-66.5 30.5t-77.5 24q-33 8 -133 37q-170 -54 -170 -262zM328 1032q0 -68 31.5 -121t93.5 -82q54 -24 188 -57q168 50 168 254q0 103 -64 160t-178 57q-113 0 -176 -56.5t-63 -154.5z" />
<glyph unicode="9" d="M106 918q0 219 121.5 345t325.5 126q236 0 357.5 -175.5t121.5 -496.5q0 -159 -31 -291t-93 -234.5t-164 -159.5t-236 -57q-70 0 -175 20t-179 44l30 133q167 -41 285 -41q174 0 250 108.5t88 350.5q-131 -38 -202.5 -53t-141.5 -15q-162 0 -259.5 104t-97.5 292z M319 932q0 -123 53 -183.5t171 -60.5q94 0 268 41q0 254 -62 378t-208 124q-112 0 -167 -78.5t-55 -220.5z" />
<glyph unicode=":" horiz-adv-x="512" d="M133 104q0 51 36 87t87 36t87 -36t36 -87t-36 -86.5t-87 -35.5t-87 35.5t-36 86.5zM133 852q0 51 36 87t87 36t87 -36t36 -87t-36 -87t-87 -36t-87 36t-36 87z" />
<glyph unicode=";" horiz-adv-x="512" d="M-8 -244l137 430h250l-254 -481zM131 852q0 51 36 87t87 36t87 -36t36 -87t-36 -87t-87 -36t-87 36t-36 87z" />
<glyph unicode="&#x3c;" d="M78 508v154l911 397l70 -146l-772 -331l774 -353l-72 -157z" />
<glyph unicode="=" d="M92 326v151h955v-151h-955zM92 694v150h955v-150h-955z" />
<glyph unicode="&#x3e;" d="M80 229l774 353l-772 331l68 146l911 -397v-154l-911 -436z" />
<glyph unicode="?" horiz-adv-x="1017" d="M76 1303q298 83 452 83q181 0 282 -83.5t101 -255.5q0 -43 -3.5 -77t-13.5 -63.5t-20 -52t-31.5 -45t-39.5 -38.5t-51.5 -37.5t-60.5 -37.5t-73 -42q-36 -20 -55 -31q-51 -29 -70 -49t-26.5 -55t-7.5 -116v-20h-152q-12 131 -12 190q0 54 29.5 86.5t97.5 67.5 q116 62 152.5 84.5t66.5 52.5q57 57 57 142q0 117 -54.5 167t-176.5 50q-136 0 -361 -52zM258 104q0 51 36 87t87 36t87 -36t36 -87t-36 -86.5t-87 -35.5t-87 35.5t-36 86.5z" />
<glyph unicode="@" horiz-adv-x="1562" d="M86 676q0 153 57 286t155.5 227t235 148t291.5 54q189 0 337.5 -71t231.5 -200t83 -295q0 -226 -158.5 -366t-407.5 -140q-13 0 -24 1t-22 3t-17 3l14 73q-155 -82 -237 -82q-88 0 -138.5 65.5t-50.5 176.5q0 144 45.5 261t126 184t180.5 67q85 0 193 -67l10 53h139 l-122 -608q150 23 223 96q50 50 78 123t28 157q0 193 -138.5 311.5t-369.5 118.5q-168 0 -303.5 -74t-212.5 -207t-77 -300q0 -165 73 -294.5t200.5 -200t285.5 -70.5q112 0 218 31t238 106l60 -86q-9 -8 -26 -20.5t-72 -44.5t-112 -57t-141 -45t-165 -20 q-202 0 -363.5 88.5t-253.5 249.5t-92 365zM590 573q0 -65 24.5 -93.5t77.5 -28.5q68 0 180 53l84 407q-89 31 -131 31q-102 0 -157 -88q-34 -56 -56 -134.5t-22 -146.5z" />
<glyph unicode="A" horiz-adv-x="1245" d="M12 0l482 1366h243l496 -1366h-225l-121 346h-563l-119 -346h-193zM373 496h461l-234 696z" />
<glyph unicode="B" horiz-adv-x="1163" d="M164 0v1366h305q173 0 250 -8.5t137 -34.5q82 -35 125 -109t43 -178q0 -138 -64.5 -212.5t-205.5 -100.5q160 -17 238.5 -101.5t78.5 -240.5q0 -117 -55 -203.5t-156 -130.5q-63 -27 -138.5 -37t-234.5 -10h-323zM373 154h96q114 0 169.5 7t96.5 27q55 26 85 83.5 t30 134.5q0 73 -27 127t-75 79q-61 31 -218 31h-157v-489zM373 793h96q200 0 273 47t73 176q0 118 -76 164q-35 22 -76.5 27t-158.5 5h-131v-419z" />
<glyph unicode="C" horiz-adv-x="1114" d="M102 678q0 342 150 526.5t426 184.5q158 0 373 -60l-35 -153q-174 38 -314 38q-189 0 -281.5 -134.5t-92.5 -383.5q0 -265 88.5 -404.5t255.5 -139.5q119 0 364 71l47 -147q-254 -101 -450 -101q-248 0 -389.5 186t-141.5 517z" />
<glyph unicode="D" horiz-adv-x="1312" d="M164 0v1366h366q185 0 291.5 -28t184.5 -97q99 -88 151.5 -230.5t52.5 -326.5q0 -207 -68 -360.5t-196 -235.5q-84 -54 -177.5 -71t-293.5 -17h-311zM377 158h76q170 0 252.5 19.5t140.5 74.5q139 130 139 432q0 301 -125 426q-58 60 -136.5 81t-234.5 21h-112v-1054z " />
<glyph unicode="E" horiz-adv-x="1067" d="M164 0v1366h827v-154h-614v-421h596v-152h-596v-485h622v-154h-835z" />
<glyph unicode="F" horiz-adv-x="1028" d="M164 0v1366h809v-154h-596v-421h581v-152h-581v-639h-213z" />
<glyph unicode="G" horiz-adv-x="1257" d="M102 680q0 342 150.5 524t429.5 182q173 0 424 -75l-33 -150q-236 53 -371 53q-190 0 -282 -130.5t-92 -397.5q0 -282 98 -422q45 -62 105.5 -90.5t150.5 -28.5q127 0 262 41v459h203v-551q-295 -119 -506 -119q-256 0 -397.5 184t-141.5 521z" />
<glyph unicode="H" horiz-adv-x="1347" d="M164 0v1366h213v-571h594v571h213v-1366h-213v639h-594v-639h-213z" />
<glyph unicode="I" horiz-adv-x="540" d="M164 0v1366h213v-1366h-213z" />
<glyph unicode="J" horiz-adv-x="905" d="M18 39l31 147q148 -30 252 -30q174 0 219 108q21 51 21 217v885h213v-870q0 -190 -15 -262t-67 -130q-106 -118 -310 -118q-163 0 -344 53z" />
<glyph unicode="K" horiz-adv-x="1200" d="M164 0v1366h213v-621l543 621h237l-573 -635l598 -731h-254l-551 684v-684h-213z" />
<glyph unicode="L" horiz-adv-x="1011" d="M164 0v1366h213v-1212h604v-154h-817z" />
<glyph unicode="M" horiz-adv-x="1683" d="M129 0l57 1366h285l367 -1190l362 1190h285l47 -1366h-207l-20 1178l-367 -1178h-238l-358 1178l-27 -1178h-186z" />
<glyph unicode="N" horiz-adv-x="1355" d="M164 0v1366h291l565 -1163l-6 1163h178v-1366h-291l-565 1153l6 -1153h-178z" />
<glyph unicode="O" horiz-adv-x="1366" d="M102 680q0 339 152 521.5t432 182.5q278 0 428 -183t150 -523q0 -341 -149.5 -522t-432.5 -181t-431.5 181t-148.5 524zM328 680q0 -133 25 -246t69 -176q40 -58 108.5 -89.5t155.5 -31.5q179 0 265.5 133t86.5 408t-86 409t-264 134q-179 0 -269.5 -136.5t-90.5 -404.5z " />
<glyph unicode="P" horiz-adv-x="1144" d="M164 0v1366h430q140 0 216.5 -15t131.5 -53q148 -104 148 -329q0 -216 -132 -326q-66 -55 -152 -75.5t-253 -20.5h-176v-547h-213zM377 698h100q128 0 186 6.5t97 26.5q117 59 117 230q0 81 -34 141.5t-93 83.5q-56 22 -226 22h-147v-510z" />
<glyph unicode="Q" horiz-adv-x="1366" d="M102 680q0 339 152 521.5t432 182.5q278 0 428 -183t150 -523q0 -323 -134.5 -501.5t-377.5 -196.5q0 -97 35.5 -130.5t136.5 -33.5q128 0 282 34l29 -131q-235 -69 -385 -69q-151 0 -220 75t-69 228v33q-218 33 -338.5 208t-120.5 486zM328 680q0 -133 25 -246t69 -176 q40 -58 108.5 -89.5t155.5 -31.5q179 0 265.5 133t86.5 408q0 273 -86 408t-264 135q-179 0 -269.5 -136.5t-90.5 -404.5z" />
<glyph unicode="R" horiz-adv-x="1198" d="M164 0v1366h391q138 0 210 -12t128 -43q74 -41 114 -120t40 -183q0 -148 -71 -232.5t-220 -113.5q72 -16 117.5 -49.5t85.5 -102.5t88 -199l114 -311h-223l-115 317q-14 39 -20 55.5t-20.5 49.5t-24 48.5t-27 38.5t-35 34.5t-42 22t-52.5 14.5q-78 8 -186 8h-39v-588 h-213zM377 741h76q41 0 65 0.5t61 2.5t60 6.5t53 13t48 20.5t38 30t31 41.5t18 55t7 70.5q0 141 -86 197q-32 21 -79.5 27.5t-146.5 6.5h-145v-471z" />
<glyph unicode="S" horiz-adv-x="1017" d="M55 49l39 154q209 -51 346 -51q124 0 210.5 59t86.5 162q0 72 -31.5 112t-123.5 74q-34 13 -89 31t-91.5 30t-84.5 32t-80 39.5t-66.5 49.5t-54.5 64t-33 81.5t-13 104.5q0 181 118 285t320 104q164 0 383 -59l-33 -150q-215 43 -326 43q-107 0 -178 -53t-71 -153 q0 -45 9.5 -72t39 -51.5t77.5 -43t134 -42.5q115 -32 186.5 -63t124 -76.5t74.5 -107t22 -149.5q0 -196 -131 -307.5t-358 -111.5q-172 0 -406 65z" />
<glyph unicode="T" horiz-adv-x="1083" d="M18 1212v154h1047v-154h-418v-1212h-213v1212h-416z" />
<glyph unicode="U" horiz-adv-x="1325" d="M152 563v803h213v-879q0 -175 70.5 -259.5t242.5 -84.5q213 0 278 133q20 38 27.5 94t7.5 158v838h183v-809q0 -212 -23 -299t-96 -154q-135 -129 -402 -129q-142 0 -257.5 49t-174.5 134q-44 64 -56.5 139t-12.5 266z" />
<glyph unicode="V" horiz-adv-x="1206" d="M8 1366h230l383 -1186l378 1186h199l-471 -1366h-244z" />
<glyph unicode="W" horiz-adv-x="1628" d="M8 1366h209l236 -1190l245 1190h256l244 -1190l240 1190h182l-301 -1366h-264l-246 1196l-240 -1196h-262z" />
<glyph unicode="X" horiz-adv-x="1159" d="M8 0l461 705l-436 661h252l313 -516l313 516h213l-426 -657l453 -709h-256l-328 555l-344 -555h-215z" />
<glyph unicode="Y" horiz-adv-x="1153" d="M8 1366h248l342 -604l338 604h209l-461 -766v-600h-213v600z" />
<glyph unicode="Z" horiz-adv-x="1134" d="M68 0v141l729 1071h-705v154h959v-141l-727 -1071h743v-154h-999z" />
<glyph unicode="[" horiz-adv-x="716" d="M164 -256v1622h481v-139h-278v-1344h278v-139h-481z" />
<glyph unicode="\" d="M82 1348l151 71l824 -1628l-150 -78z" />
<glyph unicode="]" horiz-adv-x="716" d="M72 -117h278v1344h-278v139h481v-1622h-481v139z" />
<glyph unicode="^" d="M53 453l445 913h149l436 -913l-149 -74l-361 786l-372 -786z" />
<glyph unicode="_" horiz-adv-x="1024" d="M0 -123h1024v-133h-1024v133z" />
<glyph unicode="`" horiz-adv-x="761" d="M127 1210l53 174l455 -182l-31 -102z" />
<glyph unicode="a" horiz-adv-x="946" d="M80 281q0 172 127 245q64 37 163.5 49.5t250.5 12.5v33q0 67 -3 96t-19 60t-52 40.5t-101 9.5q-113 0 -284 -32l-21 127q235 69 396 69q168 0 231 -90q29 -41 39 -102t10 -197v-602h-188v88q-98 -58 -167 -84.5t-130 -26.5q-107 0 -179.5 80t-72.5 224zM281 287 q0 -75 34 -113.5t93 -38.5q35 0 88 14.5t89 28.5l36 15v278q-138 -9 -209.5 -28t-101 -55t-29.5 -101z" />
<glyph unicode="b" horiz-adv-x="1064" d="M141 0v1454h201v-569q188 106 311 106q156 0 244 -133.5t88 -368.5q0 -231 -96.5 -371.5t-253.5 -140.5q-48 0 -106.5 19t-96.5 38t-100 54v-88h-191zM342 207q92 -34 135.5 -44.5t87.5 -10.5q102 0 154.5 82.5t52.5 244.5q0 340 -201 340q-72 0 -229 -55v-557z" />
<glyph unicode="c" horiz-adv-x="864" d="M80 475q0 236 113.5 376t298.5 140q134 0 321 -65l-31 -127q-133 30 -233 30q-256 0 -256 -348q0 -165 62 -249.5t180 -84.5q99 0 260 50l39 -119q-230 -101 -369 -101q-178 0 -281.5 129.5t-103.5 368.5z" />
<glyph unicode="d" horiz-adv-x="1064" d="M80 481q0 231 97 370.5t257 139.5q49 0 104 -17.5t93 -37t92 -51.5v569h201v-1454h-191v88q-193 -111 -321 -111q-156 0 -244 134t-88 370zM293 489q0 -339 201 -339q78 0 229 57v557q-94 33 -135.5 43t-85.5 10q-102 0 -155.5 -83t-53.5 -245z" />
<glyph unicode="e" horiz-adv-x="972" d="M80 453q0 246 114.5 392t313.5 146q196 0 293.5 -120.5t97.5 -366.5v-45h-606v-33q0 -283 233 -283q66 0 136.5 15t189.5 53l37 -119q-151 -66 -239.5 -90.5t-176.5 -24.5q-180 0 -286.5 127t-106.5 349zM299 575l410 17q-3 132 -48 195t-137 63q-98 0 -155.5 -70 t-69.5 -205z" />
<glyph unicode="f" horiz-adv-x="706" d="M31 831v117l170 23v159q0 107 9.5 157.5t37.5 90.5q70 105 223 105q105 0 248 -37l-21 -125q-54 12 -168 12q-77 0 -104 -37t-27 -141v-186h271v-138h-271v-831h-198v831h-170z" />
<glyph unicode="g" horiz-adv-x="1060" d="M80 487q0 226 96.5 365t253.5 139q47 0 103.5 -18.5t95.5 -38t100 -53.5v88h191v-875q0 -204 -20 -283t-85 -141q-105 -102 -311 -102q-125 0 -346 45l16 123q150 -17 242 -17q206 0 264 93q23 36 31 87.5t8 159.5v43q-181 -104 -307 -104q-154 0 -243 130.5t-89 358.5z M293 496q0 -330 201 -330q42 0 88.5 12t136.5 45v541q-90 33 -131.5 43t-85.5 10q-101 0 -155 -82.5t-54 -238.5z" />
<glyph unicode="h" horiz-adv-x="1067" d="M141 0v1454h201v-563q202 100 332 100q149 0 217 -100q29 -43 38 -92.5t9 -165.5v-633h-201v590q0 33 -0.5 48.5t-2 42.5t-5.5 40t-10.5 32t-17.5 28t-26 19t-36.5 13.5t-48.5 3.5q-115 0 -248 -47v-770h-201z" />
<glyph unicode="i" horiz-adv-x="483" d="M121 1278q0 51 35 86t86 35q50 0 84 -35t34 -86q0 -50 -33.5 -85.5t-82.5 -35.5q-51 0 -87 35t-36 86zM141 0v969h201v-969h-201z" />
<glyph unicode="j" horiz-adv-x="491" d="M-160 -401l15 127q86 -9 120 -9q33 0 57.5 2.5t43 10.5t31 15.5t21 25t13 30t6.5 41t2.5 47.5t0.5 58v1022h200v-987q0 -133 -10 -191t-39 -106q-65 -109 -240 -109q-93 0 -221 23zM127 1278q0 51 35 86t86 35t86 -35t35 -86q0 -50 -35 -85.5t-84 -35.5q-51 0 -87 35 t-36 86z" />
<glyph unicode="k" horiz-adv-x="989" d="M141 0v1454h201v-903l393 418h221l-428 -437l453 -532h-240l-399 483v-483h-201z" />
<glyph unicode="l" horiz-adv-x="483" d="M141 0v1454h201v-1454h-201z" />
<glyph unicode="m" horiz-adv-x="1519" d="M141 0v969h189v-78q196 100 303 100q143 0 198 -112q224 112 328 112q37 0 67.5 -7t53 -17.5t40 -29.5t29 -37t20 -45.5t12.5 -50t6.5 -56.5t3 -58t0.5 -61v-629h-197v575v26v51t-2.5 45.5t-7 42.5t-13.5 33t-22 28t-33.5 15.5t-46.5 6.5q-33 0 -85 -13.5t-88 -27.5 l-36 -14q4 -35 4 -127v-641h-196v575v26v51t-2.5 45.5t-7 42.5t-13.5 33t-22 28t-33.5 15.5t-46.5 6.5q-35 0 -73.5 -10.5t-131.5 -42.5v-770h-197z" />
<glyph unicode="n" horiz-adv-x="1067" d="M141 0v969h191v-82q204 104 342 104q149 0 217 -100q29 -43 38 -92.5t9 -165.5v-633h-201v590q0 33 -0.5 48.5t-2 42.5t-5.5 40t-10.5 32t-17.5 28t-26 19t-36.5 13.5t-48.5 3.5q-115 0 -248 -47v-770h-201z" />
<glyph unicode="o" horiz-adv-x="1056" d="M80 485q0 236 119 371t329 135q217 0 333 -131t116 -375q0 -243 -116.5 -373t-332.5 -130q-214 0 -331 132t-117 371zM293 487q0 -187 57 -270.5t180 -83.5t178.5 82.5t55.5 267.5q0 187 -55.5 272t-180.5 85q-120 0 -177.5 -86t-57.5 -267z" />
<glyph unicode="p" horiz-adv-x="1064" d="M141 -410v1379h191v-86q197 108 325 108q154 0 241 -133.5t87 -368.5q0 -232 -97 -372t-257 -140q-48 0 -105.5 20t-90 37.5t-93.5 53.5v-498h-201zM342 207q94 -33 137 -44t86 -11q102 0 154.5 82.5t52.5 244.5q0 340 -201 340q-69 0 -229 -55v-557z" />
<glyph unicode="q" horiz-adv-x="1064" d="M80 481q0 231 96.5 370.5t253.5 139.5q67 0 139.5 -29.5t163.5 -80.5v88h191v-1379h-201v496q-183 -109 -311 -109q-156 0 -244 134t-88 370zM293 489q0 -339 201 -339q76 0 229 57v557q-94 33 -135.5 43t-85.5 10q-102 0 -155.5 -83t-53.5 -245z" />
<glyph unicode="r" horiz-adv-x="661" d="M141 0v969h191v-92q76 57 140.5 81.5t133.5 24.5l43 -2v-178q-15 2 -63 2q-129 0 -244 -51v-754h-201z" />
<glyph unicode="s" horiz-adv-x="792" d="M55 25l33 135q132 -31 240 -31q204 0 204 139q0 58 -31.5 87.5t-129.5 56.5q-59 16 -101 31.5t-83.5 39t-67 51.5t-41 68.5t-15.5 91.5q0 139 91.5 217t251.5 78q126 0 280 -51l-29 -127q-151 31 -227 31q-79 0 -122.5 -32t-43.5 -93q0 -36 20.5 -62.5t53.5 -40.5 t75.5 -28t87 -25t87 -32t75.5 -47.5t53.5 -73.5t20.5 -109q0 -152 -98 -235.5t-277 -83.5q-128 0 -307 45z" />
<glyph unicode="t" horiz-adv-x="710" d="M12 831v111l164 21v268h201v-262h266v-138h-266v-466q0 -119 2.5 -146t13.5 -47q21 -37 86 -37q57 0 170 29l31 -123q-166 -64 -277 -64q-143 0 -198 107q-17 32 -23 78t-6 145v524h-164z" />
<glyph unicode="u" horiz-adv-x="1067" d="M129 330v639h201v-590q0 -33 0.5 -48.5t2 -42.5t5.5 -40t10.5 -32t17.5 -28t26 -19t36.5 -13.5t48.5 -3.5q115 0 248 47v770h201v-969h-191v82q-206 -105 -338 -105q-151 0 -219 97q-30 43 -39.5 95.5t-9.5 160.5z" />
<glyph unicode="v" horiz-adv-x="925" d="M8 969h219l250 -799l258 799h183l-347 -969h-215z" />
<glyph unicode="w" horiz-adv-x="1349" d="M8 969h201l178 -785l193 785h227l192 -785l179 785h163l-243 -969h-228l-194 797l-195 -797h-227z" />
<glyph unicode="x" horiz-adv-x="907" d="M8 0l328 506l-305 463h239l203 -334l209 334h197l-308 -463l328 -506h-231l-228 375l-231 -375h-201z" />
<glyph unicode="y" horiz-adv-x="942" d="M8 969h221l277 -733l246 733h182l-404 -1090q-47 -129 -89 -192t-96.5 -88t-147.5 -25q-71 0 -148 14l14 127q37 -4 82 -4q37 0 57 1t42 11t32.5 19.5t28 40t29.5 58t37 87.5l32 80z" />
<glyph unicode="z" horiz-adv-x="866" d="M55 0v117l502 714h-487v138h729v-115l-500 -713h512v-141h-756z" />
<glyph unicode="{" horiz-adv-x="716" d="M68 526v133q41 3 58 6t30.5 20t15.5 43.5t2 84.5v178q0 121 15.5 180t58.5 107q43 46 99 62t177 16h121v-142h-35q-88 0 -129 -9.5t-69 -37.5q-24 -22 -29.5 -53.5t-5.5 -144.5v-107v-16q0 -49 -0.5 -72.5t-5 -59.5t-13.5 -55t-26 -38t-43 -29q56 -26 72 -75t16 -128 v-323q0 -110 40.5 -151.5t149.5 -41.5h78v-139h-113q-122 0 -178 13.5t-96 53.5q-51 49 -67.5 123.5t-16.5 249.5v156q0 60 -2.5 92t-7 56t-18 32.5t-30 12t-48.5 3.5z" />
<glyph unicode="|" horiz-adv-x="512" d="M170 -248v1614h170v-1614h-170z" />
<glyph unicode="}" horiz-adv-x="716" d="M70 -127h80q109 0 149.5 41.5t40.5 151.5v323q0 38 2 62t10 54t27 51.5t49 35.5q-26 10 -43 29t-26 38t-13.5 55t-5 59.5t-0.5 72.5v16v107q0 113 -5.5 144.5t-29.5 53.5q-28 28 -69.5 37.5t-129.5 9.5h-36v142h120q121 0 177.5 -16t99.5 -62q43 -48 58.5 -107t15.5 -180 v-178q0 -38 1 -61t6 -41t10.5 -26.5t20.5 -14.5t28.5 -7.5t41.5 -3.5v-133q-32 0 -48.5 -3.5t-30.5 -12t-19 -32.5t-7.5 -56.5t-2.5 -91.5v-156q0 -175 -16.5 -249.5t-67.5 -123.5q-40 -40 -96.5 -53.5t-178.5 -13.5h-112v139z" />
<glyph unicode="~" d="M57 745q165 101 310 101q62 0 172 -27q33 -9 131 -37q46 -14 98 -14q62 0 113.5 16.5t134.5 67.5l65 -129q-155 -107 -315 -107q-81 0 -217 43q-68 22 -102.5 29.5t-75.5 7.5q-111 0 -248 -78z" />
<glyph unicode="&#xa1;" horiz-adv-x="540" d="M147 868q0 51 36 87t87 36t87 -36t36 -87t-36 -87t-87 -36t-87 36t-36 87zM150 -393l43 983h155l45 -983h-243z" />
<glyph unicode="&#xa2;" d="M168 516q0 248 108 388t299 149v192h134v-194q124 -16 274 -64l-35 -131q-43 11 -125 22t-114 11v-721q106 11 256 65l45 -129q-179 -84 -301 -104v-262h-134v258q-197 9 -302 142t-105 378zM379 530q0 -319 196 -354v703q-94 -15 -145 -104t-51 -245z" />
<glyph unicode="&#xa3;" d="M94 653v140h232l24 125q31 154 50 216.5t51 114.5q40 66 103 100.5t142 34.5q161 0 375 -69l-35 -139q-181 43 -258 43q-63 0 -101 -24.5t-65 -78.5q-25 -54 -49 -182l-26 -141h397v-140h-422l-18 -100q-56 -302 -148 -401h727v-152h-973v135q64 40 97.5 109t64.5 225 l37 184h-205z" />
<glyph unicode="&#xa4;" d="M63 164l99 98q-43 116 -43 270q0 179 57 308l-104 106l110 111l82 -84q114 114 305 114q188 0 303 -112l82 82l111 -111l-100 -100q59 -130 59 -307q0 -156 -47 -277l98 -98l-112 -111l-68 68q-123 -139 -324 -139q-210 0 -329 141l-70 -70zM330 524q0 -393 239 -393 q132 0 188 104t56 308q0 391 -244 391q-130 0 -184.5 -104t-54.5 -306z" />
<glyph unicode="&#xa5;" d="M2 1366h236l342 -573l360 573h195l-383 -580h241v-122h-319v-168h319v-123h-319v-373h-207v373h-322v123h322v168h-322v122h226z" />
<glyph unicode="&#xa6;" horiz-adv-x="512" d="M170 -248v680h170v-680h-170zM170 686v680h170v-680h-170z" />
<glyph unicode="&#xa7;" d="M117 600q0 156 102 264q-57 73 -57 174q0 167 102 260t283 93q175 0 371 -58l-35 -133q-175 37 -275 37q-241 0 -241 -174q0 -82 69 -123q17 -10 44.5 -19.5t49 -15t56 -13.5t45.5 -11q117 -28 168.5 -45t91.5 -43q129 -81 129 -267q0 -162 -102 -264q57 -69 57 -178 q0 -168 -114 -260t-316 -92q-196 0 -385 53l30 137q183 -35 324 -35q126 0 191 46t65 130q0 78 -74 119q-35 18 -164 51q-174 41 -245 76q-170 86 -170 291zM289 635q0 -111 125 -166q48 -21 186 -53q136 -31 205 -70q41 50 41 129q0 74 -39.5 117t-116.5 74 q-35 14 -175 46.5t-183 67.5q-43 -67 -43 -145z" />
<glyph unicode="&#xa8;" horiz-adv-x="761" d="M86 1270q0 43 30.5 72.5t73.5 29.5t73 -29.5t30 -72.5t-30 -74t-73 -31t-73.5 31t-30.5 74zM469 1270q0 43 30.5 72.5t73.5 29.5t73 -29.5t30 -72.5t-30 -74t-73 -31t-73.5 31t-30.5 74z" />
<glyph unicode="&#xa9;" horiz-adv-x="1581" d="M86 682q0 143 56 273.5t150.5 225t225 150t273.5 55.5t273.5 -55.5t225 -150t150 -225t55.5 -273.5t-55.5 -273.5t-150 -225t-225 -150.5t-273.5 -56q-191 0 -353.5 94.5t-257 257t-94.5 353.5zM236 680q0 -113 44 -217t118 -179t177 -120t216 -45q152 0 280 76 t201.5 205.5t73.5 281.5q0 113 -44 217t-118 179t-177 120t-216 45q-152 0 -280 -76t-201.5 -205.5t-73.5 -281.5zM473 686q0 176 82 277.5t229 101.5q102 0 246 -39l-26 -108q-125 16 -197 16q-93 0 -135.5 -59.5t-42.5 -188.5q0 -115 49 -175t139 -60q49 0 197 36l33 -108 q-61 -22 -95 -32.5t-78.5 -20t-82.5 -9.5q-152 0 -235 97.5t-83 271.5z" />
<glyph unicode="&#xaa;" horiz-adv-x="765" d="M80 874q0 159 129 193q90 23 266 23v24q0 45 -2.5 66.5t-15 42t-39.5 27.5t-74 7q-83 0 -207 -22l-16 88q174 49 293 49q123 0 168 -63q22 -29 29 -71t7 -138v-418h-139v61q-138 -75 -217 -75q-78 0 -130 55t-52 151zM229 883q0 -52 23 -79.5t65 -27.5q24 0 63.5 10 t67.5 20l27 11v191q-147 -7 -196.5 -33t-49.5 -92z" />
<glyph unicode="&#xab;" horiz-adv-x="921" d="M37 489l319 424l129 -69l-198 -355l198 -356l-129 -70zM451 489l258 422l127 -69l-152 -353l152 -354l-127 -69z" />
<glyph unicode="&#xac;" d="M92 676v151h955v-440h-158v289h-797z" />
<glyph unicode="&#xad;" horiz-adv-x="813" d="M100 510v152h613v-152h-613z" />
<glyph unicode="&#xae;" horiz-adv-x="819" d="M76 1053q0 138 98 235.5t236 97.5t234.5 -97.5t96.5 -235.5q0 -137 -97.5 -234.5t-233.5 -97.5q-137 0 -235.5 97.5t-98.5 234.5zM147 1053q0 -109 77 -187t186 -78q108 0 184 78t76 187t-76 187.5t-184 78.5t-185.5 -78.5t-77.5 -187.5zM293 893v336h86q71 0 94 -6 q28 -8 45 -30.5t17 -53.5q0 -33 -18.5 -55.5t-49.5 -28.5q23 -11 36.5 -27.5t28.5 -54.5l31 -80h-69l-27 74q-10 26 -15.5 38.5t-18 18.5t-18 6h-32.5h-23v-137h-67zM360 1081h25q47 0 64.5 11.5t17.5 40.5q0 27 -17.5 36t-70.5 9h-19v-97z" />
<glyph unicode="&#xaf;" horiz-adv-x="761" d="M70 1165v135h612v-135h-612z" />
<glyph unicode="&#xb0;" d="M281 1110q0 120 84.5 203.5t203.5 83.5t203 -84.5t84 -202.5q0 -120 -84 -204.5t-203 -84.5q-120 0 -204 84.5t-84 204.5zM406 1110q0 -70 47.5 -120t115.5 -50q67 0 114.5 51t47.5 119t-48.5 118t-115.5 50t-114 -49.5t-47 -118.5z" />
<glyph unicode="&#xb1;" d="M92 -14v151h955v-151h-955zM92 664v149h397v379h160v-379h398v-149h-398v-377h-160v377h-397z" />
<glyph unicode="&#xb2;" horiz-adv-x="813" d="M123 645v94l156 121q136 106 181.5 170t45.5 117q0 43 -31.5 74.5t-95.5 31.5q-71 0 -215 -26l-29 98q175 49 283 49q123 0 189.5 -55t66.5 -164q0 -41 -17 -81t-42.5 -73t-74.5 -75.5t-91.5 -75t-116.5 -84.5h356v-121h-565z" />
<glyph unicode="&#xb3;" horiz-adv-x="813" d="M131 662l19 110q152 -20 217 -20q78 0 112.5 27.5t34.5 84.5q0 35 -13 54t-53.5 29.5t-117.5 10.5q-43 0 -74 -2v115q19 1 41 0t45 0.5t45 3.5t41.5 9t34 17.5t23 29t8.5 43.5q0 42 -24.5 60.5t-82.5 18.5q-56 0 -215 -28l-29 106q176 43 283 43q106 0 168.5 -47 t62.5 -137q0 -113 -98 -166q123 -43 123 -164q0 -115 -79 -171t-216 -56q-92 0 -256 29z" />
<glyph unicode="&#xb4;" horiz-adv-x="761" d="M127 1202l453 182l55 -174l-477 -110z" />
<glyph unicode="&#xb5;" d="M172 -268v1237h199v-576q0 -97 3 -127t15 -55q31 -66 131 -66q101 0 246 60v764h201v-969h-193v82q-184 -94 -287 -94q-88 0 -118 20v-276h-197z" />
<glyph unicode="&#xb6;" d="M59 905q0 217 125 339t344 122h488v-1612h-430v109l229 31v1304h-153v-725q-105 -35 -211 -35q-181 0 -286.5 120.5t-105.5 346.5z" />
<glyph unicode="&#xb7;" horiz-adv-x="512" d="M133 717q0 51 36 87t87 36t87 -36t36 -87t-36 -87t-87 -36t-87 36t-36 87z" />
<glyph unicode="&#xb8;" horiz-adv-x="761" d="M223 -373l21 82q51 -10 80 -10q43 0 61 17.5t18 58.5q0 29 -17 42t-54 13q-33 0 -60 -4l21 188l108 2l-10 -104q79 -2 114.5 -29.5t35.5 -93.5q0 -86 -44 -137t-116 -51q-74 0 -158 26z" />
<glyph unicode="&#xb9;" horiz-adv-x="813" d="M164 1323l362 43v-721h-161v586l-183 -14z" />
<glyph unicode="&#xba;" horiz-adv-x="765" d="M55 1020q0 163 88 257.5t240 94.5q157 0 241.5 -90.5t84.5 -259.5q0 -167 -85.5 -259.5t-240.5 -92.5q-154 0 -241 92.5t-87 257.5zM213 1022q0 -130 41 -188t129 -58t128 57.5t40 186.5t-39.5 187.5t-128.5 58.5q-170 0 -170 -244z" />
<glyph unicode="&#xbb;" horiz-adv-x="921" d="M86 135l152 354l-152 353l125 69l260 -422l-260 -423zM436 133l199 356l-199 355l127 69l322 -424l-322 -426z" />
<glyph unicode="&#xbc;" horiz-adv-x="1792" d="M176 1323l363 43v-721h-162v586l-182 -14zM358 12l977 1422l125 -86l-979 -1422zM1073 166v106l365 445h170v-432h98v-119h-98v-166h-148v166h-387zM1247 285h213v262z" />
<glyph unicode="&#xbd;" horiz-adv-x="1792" d="M176 1323l363 43v-721h-162v586l-182 -14zM287 12l977 1422l125 -86l-979 -1422zM1102 0v94l155 121q136 106 182 170t46 117q0 43 -31.5 74.5t-95.5 31.5q-71 0 -215 -26l-29 98q175 49 283 49q123 0 189.5 -55t66.5 -164q0 -41 -17 -81t-42.5 -73t-74.5 -75.5 t-91.5 -75t-116.5 -84.5h356v-121h-565z" />
<glyph unicode="&#xbe;" horiz-adv-x="1792" d="M131 664l19 110q152 -20 217 -20q78 0 112.5 26.5t34.5 83.5q0 35 -13 54t-53.5 29.5t-117.5 10.5q-43 0 -74 -2v115q19 1 41 0t45 0.5t45 3.5t41.5 9t34 17.5t23 29t8.5 43.5q0 42 -24.5 60.5t-82.5 18.5q-56 0 -215 -28l-29 106q176 43 283 43q106 0 168.5 -47 t62.5 -137q0 -113 -98 -166q123 -43 123 -164q0 -115 -79 -170t-216 -55q-92 0 -256 29zM377 12l977 1422l125 -86l-979 -1422zM1073 166v106l365 445h170v-432h98v-119h-98v-166h-148v166h-387zM1247 285h213v262z" />
<glyph unicode="&#xbf;" horiz-adv-x="1015" d="M106 -74q0 57 5 98.5t26 78.5t35 58.5t60 54t70.5 47t96.5 55.5q12 7 18.5 11t17.5 10t20 11q52 29 70.5 48.5t26 54.5t7.5 116v21h152q12 -132 12 -191q0 -54 -29 -86t-98 -67q-120 -64 -156 -86t-65 -51q-58 -58 -58 -142q0 -117 55 -167t177 -50q139 0 360 51l31 -131 q-302 -84 -451 -84q-181 0 -282 84t-101 256zM512 868q0 51 36 87t87 36t87 -36t36 -87t-36 -87t-87 -36t-87 36t-36 87z" />
<glyph unicode="&#xc0;" horiz-adv-x="1245" d="M12 0l482 1366h243l496 -1366h-225l-121 346h-563l-119 -346h-193zM332 1597l61 179l512 -191l-35 -104zM373 496h461l-234 696z" />
<glyph unicode="&#xc1;" horiz-adv-x="1245" d="M12 0l482 1366h243l496 -1366h-225l-121 346h-563l-119 -346h-193zM332 1585l512 191l61 -179l-538 -116zM373 496h461l-234 696z" />
<glyph unicode="&#xc2;" horiz-adv-x="1245" d="M12 0l482 1366h243l496 -1366h-225l-121 346h-563l-119 -346h-193zM266 1575l357 197l350 -197l-58 -96l-297 110l-290 -110zM373 496h461l-234 696z" />
<glyph unicode="&#xc3;" horiz-adv-x="1245" d="M12 0l482 1366h243l496 -1366h-225l-121 346h-563l-119 -346h-193zM274 1552q66 73 121 102t129 29q56 0 156 -32q65 -21 92 -21q28 0 50.5 12.5t60.5 45.5l82 -86q-63 -68 -119 -96.5t-125 -28.5q-54 0 -152 36q-61 21 -90 21q-58 0 -125 -64zM373 496h461l-234 696z " />
<glyph unicode="&#xc4;" horiz-adv-x="1245" d="M12 0l482 1366h243l496 -1366h-225l-121 346h-563l-119 -346h-193zM322 1622q0 43 30.5 72.5t73.5 29.5t72.5 -29.5t29.5 -72.5t-29.5 -73.5t-72.5 -30.5t-73.5 30.5t-30.5 73.5zM373 496h461l-234 696zM705 1622q0 43 30.5 72.5t73.5 29.5t72.5 -29.5t29.5 -72.5 t-29.5 -73.5t-72.5 -30.5t-73.5 30.5t-30.5 73.5z" />
<glyph unicode="&#xc5;" horiz-adv-x="1245" d="M12 0l482 1366h243l496 -1366h-225l-121 346h-563l-119 -346h-193zM373 496h461l-234 696zM424 1634q0 82 57.5 139.5t139.5 57.5t139 -57.5t57 -139.5t-57 -140t-139 -58t-139.5 58t-57.5 140zM516 1634q0 -45 30.5 -78.5t74.5 -33.5t74 33t30 79q0 45 -30 78t-74 33 t-74.5 -33t-30.5 -78z" />
<glyph unicode="&#xc6;" horiz-adv-x="1857" d="M12 0l869 1366h897v-154h-598v-421h579v-152h-579v-485h610v-154h-821l2 342h-545l-215 -342h-199zM518 494h451v727z" />
<glyph unicode="&#xc7;" horiz-adv-x="1114" d="M102 678q0 342 150 526.5t426 184.5q158 0 373 -60l-35 -153q-174 38 -314 38q-189 0 -281.5 -134.5t-92.5 -383.5q0 -265 88.5 -404.5t255.5 -139.5q119 0 364 71l47 -147q-74 -31 -184 -61t-197 -35l-6 -70h21q147 0 147 -127q0 -86 -49 -136t-131 -50q-90 0 -174 26 l22 84q50 -12 101 -12q39 0 60.5 19t21.5 55q0 32 -19.5 45.5t-62.5 13.5q-8 0 -66 -4l19 153q-225 15 -354.5 198t-129.5 503z" />
<glyph unicode="&#xc8;" horiz-adv-x="1067" d="M164 0v1366h827v-154h-614v-421h596v-152h-596v-485h622v-154h-835zM266 1597l62 179l510 -191l-33 -104z" />
<glyph unicode="&#xc9;" horiz-adv-x="1067" d="M164 0v1366h827v-154h-614v-421h596v-152h-596v-485h622v-154h-835zM299 1585l512 191l61 -179l-538 -116z" />
<glyph unicode="&#xca;" horiz-adv-x="1067" d="M164 0v1366h827v-154h-614v-421h596v-152h-596v-485h622v-154h-835zM221 1575l359 197l348 -197l-58 -96l-297 110l-290 -110z" />
<glyph unicode="&#xcb;" horiz-adv-x="1067" d="M164 0v1366h827v-154h-614v-421h596v-152h-596v-485h622v-154h-835zM270 1622q0 42 31 72t74 30t72.5 -29.5t29.5 -72.5t-29.5 -73.5t-72.5 -30.5t-74 30.5t-31 73.5zM653 1622q0 42 31 72t74 30t72.5 -29.5t29.5 -72.5t-29.5 -73.5t-72.5 -30.5t-74 30.5t-31 73.5z" />
<glyph unicode="&#xcc;" horiz-adv-x="540" d="M-14 1597l61 179l512 -191l-35 -104zM164 0v1366h213v-1366h-213z" />
<glyph unicode="&#xcd;" horiz-adv-x="540" d="M-14 1585l512 191l61 -179l-541 -116zM164 0v1366h213v-1366h-213z" />
<glyph unicode="&#xce;" horiz-adv-x="540" d="M-82 1575l358 197l349 -197l-58 -96l-297 110l-290 -110zM164 0v1366h213v-1366h-213z" />
<glyph unicode="&#xcf;" horiz-adv-x="540" d="M-25 1622q0 42 31 72t74 30t72.5 -29.5t29.5 -72.5t-29.5 -73.5t-72.5 -30.5t-74 30.5t-31 73.5zM164 0v1366h213v-1366h-213zM358 1622q0 42 31 72t74 30t72.5 -29.5t29.5 -72.5t-29.5 -73.5t-72.5 -30.5t-74 30.5t-31 73.5z" />
<glyph unicode="&#xd0;" horiz-adv-x="1312" d="M-29 643v143h193v580h366q185 0 291.5 -28t184.5 -97q99 -88 151.5 -230.5t52.5 -326.5q0 -207 -68 -360.5t-196 -235.5q-84 -54 -177.5 -71t-293.5 -17h-311v643h-193zM377 158h76q170 0 252.5 19.5t140.5 74.5q139 130 139 432q0 301 -125 426q-58 60 -136.5 81 t-234.5 21h-112v-426h295v-143h-295v-485z" />
<glyph unicode="&#xd1;" horiz-adv-x="1355" d="M164 0v1366h291l565 -1163l-6 1163h178v-1366h-291l-565 1153l6 -1153h-178zM334 1552q66 74 120.5 102.5t127.5 28.5q57 0 157 -32q65 -21 92 -21q28 0 50.5 12.5t60.5 45.5l82 -86q-63 -67 -120 -96t-126 -29q-34 0 -63 7.5t-86 28.5q-61 21 -90 21q-58 0 -125 -64z " />
<glyph unicode="&#xd2;" horiz-adv-x="1366" d="M102 680q0 339 152 521.5t432 182.5q278 0 428 -183t150 -523q0 -341 -149.5 -522t-432.5 -181t-431.5 181t-148.5 524zM328 680q0 -133 25 -246t69 -176q40 -58 108.5 -89.5t155.5 -31.5q179 0 265.5 133t86.5 408t-86 409t-264 134q-179 0 -269.5 -136.5t-90.5 -404.5z M397 1597l62 179l510 -191l-33 -104z" />
<glyph unicode="&#xd3;" horiz-adv-x="1366" d="M102 680q0 339 152 521.5t432 182.5q278 0 428 -183t150 -523q0 -341 -149.5 -522t-432.5 -181t-431.5 181t-148.5 524zM328 680q0 -133 25 -246t69 -176q40 -58 108.5 -89.5t155.5 -31.5q179 0 265.5 133t86.5 408t-86 409t-264 134q-179 0 -269.5 -136.5t-90.5 -404.5z M397 1585l512 191l60 -179l-539 -116z" />
<glyph unicode="&#xd4;" horiz-adv-x="1366" d="M102 680q0 339 152 521.5t432 182.5q278 0 428 -183t150 -523q0 -341 -149.5 -522t-432.5 -181t-431.5 181t-148.5 524zM328 680q0 -133 25 -246t69 -176q40 -58 108.5 -89.5t155.5 -31.5q179 0 265.5 133t86.5 408t-86 409t-264 134q-179 0 -269.5 -136.5t-90.5 -404.5z M330 1575l358 197l350 -197l-57 -96l-297 110l-293 -110z" />
<glyph unicode="&#xd5;" horiz-adv-x="1366" d="M102 680q0 339 152 521.5t432 182.5q278 0 428 -183t150 -523q0 -341 -149.5 -522t-432.5 -181t-431.5 181t-148.5 524zM328 680q0 -133 25 -246t69 -176q40 -58 108.5 -89.5t155.5 -31.5q179 0 265.5 133t86.5 408t-86 409t-264 134q-179 0 -269.5 -136.5t-90.5 -404.5z M338 1552q66 73 121 102t129 29q55 0 155 -32q65 -21 93 -21t50 12.5t60 45.5l82 -86q-63 -68 -119 -96.5t-125 -28.5q-53 0 -151 36q-61 21 -90 21q-58 0 -125 -64z" />
<glyph unicode="&#xd6;" horiz-adv-x="1366" d="M102 680q0 339 152 521.5t432 182.5q278 0 428 -183t150 -523q0 -341 -149.5 -522t-432.5 -181t-431.5 181t-148.5 524zM328 680q0 -133 25 -246t69 -176q40 -58 108.5 -89.5t155.5 -31.5q179 0 265.5 133t86.5 408t-86 409t-264 134q-179 0 -269.5 -136.5t-90.5 -404.5z M387 1622q0 42 31 72t74 30t72.5 -29.5t29.5 -72.5t-29.5 -73.5t-72.5 -30.5t-74 30.5t-31 73.5zM770 1622q0 43 30.5 72.5t73.5 29.5t73 -29.5t30 -72.5t-30 -73.5t-73 -30.5t-73.5 30.5t-30.5 73.5z" />
<glyph unicode="&#xd7;" d="M80 180l379 379l-379 379l110 111l379 -379l377 379l111 -111l-377 -377l379 -381l-113 -110l-379 381l-379 -381z" />
<glyph unicode="&#xd8;" horiz-adv-x="1366" d="M102 680q0 338 151 521t431 183q61 0 117.5 -9.5t93.5 -23t66 -27t42 -22.5l13 -10l108 154l123 -86l-121 -176q6 -6 15 -18t33 -56.5t42 -97.5t33 -143t15 -191q0 -341 -150.5 -522t-433.5 -181q-62 0 -119 10t-94.5 23.5t-66 27.5t-41.5 24l-13 10l-113 -160l-124 88 l127 178q-5 6 -14.5 18t-32.5 56t-40.5 97t-32 142.5t-14.5 190.5zM328 680q0 -90 11 -168.5t21 -111.5l11 -33l536 774l-8.5 8.5t-25 19.5t-43 24.5t-62.5 19t-82 8.5q-178 0 -268 -137t-90 -404zM453 221q101 -84 233 -84q179 0 265.5 133t86.5 408q0 102 -11.5 181 t-22.5 107l-11 29z" />
<glyph unicode="&#xd9;" horiz-adv-x="1325" d="M152 563v803h213v-879q0 -175 70.5 -259.5t242.5 -84.5q213 0 278 133q20 38 27.5 94t7.5 158v838h183v-809q0 -212 -23 -299t-96 -154q-135 -129 -402 -129q-142 0 -257.5 49t-174.5 134q-44 64 -56.5 139t-12.5 266zM381 1597l61 179l510 -191l-32 -104z" />
<glyph unicode="&#xda;" horiz-adv-x="1325" d="M152 563v803h213v-879q0 -175 70.5 -259.5t242.5 -84.5q213 0 278 133q20 38 27.5 94t7.5 158v838h183v-809q0 -212 -23 -299t-96 -154q-135 -129 -402 -129q-142 0 -257.5 49t-174.5 134q-44 64 -56.5 139t-12.5 266zM383 1585l510 191l61 -179l-538 -116z" />
<glyph unicode="&#xdb;" horiz-adv-x="1325" d="M152 563v803h213v-879q0 -175 70.5 -259.5t242.5 -84.5q213 0 278 133q20 38 27.5 94t7.5 158v838h183v-809q0 -212 -23 -299t-96 -154q-135 -129 -402 -129q-142 0 -257.5 49t-174.5 134q-44 64 -56.5 139t-12.5 266zM313 1575l359 197l350 -197l-59 -96l-295 110 l-293 -110z" />
<glyph unicode="&#xdc;" horiz-adv-x="1325" d="M152 563v803h213v-879q0 -175 70.5 -259.5t242.5 -84.5q213 0 278 133q20 38 27.5 94t7.5 158v838h183v-809q0 -212 -23 -299t-96 -154q-135 -129 -402 -129q-142 0 -257.5 49t-174.5 134q-44 64 -56.5 139t-12.5 266zM371 1622q0 43 30.5 72.5t73.5 29.5t73 -29.5 t30 -72.5t-30 -73.5t-73 -30.5t-73.5 30.5t-30.5 73.5zM754 1622q0 43 30.5 72.5t73.5 29.5t73 -29.5t30 -72.5t-30 -73.5t-73 -30.5t-73.5 30.5t-30.5 73.5z" />
<glyph unicode="&#xdd;" horiz-adv-x="1153" d="M8 1366h248l342 -604l338 604h209l-461 -766v-600h-213v600zM336 1585l512 191l61 -179l-538 -116z" />
<glyph unicode="&#xde;" horiz-adv-x="1144" d="M164 0v1366h211v-213h219q141 0 216.5 -15t131.5 -53q148 -104 148 -329q0 -216 -132 -326q-66 -55 -152 -75.5t-253 -20.5h-176v-334h-213zM377 485h100q128 0 186 6.5t97 26.5q117 58 117 230q0 81 -34 141.5t-93 83.5q-56 22 -226 22h-147v-510z" />
<glyph unicode="&#xdf;" horiz-adv-x="1132" d="M135 0v1026q0 226 105.5 335t332.5 109q183 0 281 -79t98 -224q0 -71 -24 -129t-59 -95.5t-69.5 -69.5t-58.5 -67t-24 -73q0 -33 20 -59.5t51.5 -45.5t70 -37t77 -41t70 -52t51.5 -75t20 -104q0 -168 -95.5 -253.5t-260.5 -85.5q-70 0 -131 10t-160 35l31 133 q145 -29 211 -29q196 0 196 174q0 43 -19 76t-49.5 54.5t-67 40t-73 38.5t-67 44.5t-49.5 64t-19 90.5q0 55 24 102t58.5 82.5l69 71t58.5 82.5t24 102q0 84 -49.5 124t-139.5 40q-138 0 -185.5 -81t-47.5 -265v-969h-201z" />
<glyph unicode="&#xe0;" horiz-adv-x="946" d="M80 281q0 172 127 245q64 37 163.5 49.5t250.5 12.5v33q0 67 -3 96t-19 60t-52 40.5t-101 9.5q-113 0 -284 -32l-21 127q235 69 396 69q168 0 231 -90q29 -41 39 -102t10 -197v-602h-188v88q-98 -58 -167 -84.5t-130 -26.5q-107 0 -179.5 80t-72.5 224zM217 1210l53 174 l455 -182l-31 -102zM281 287q0 -75 34 -113.5t93 -38.5q35 0 88 14.5t89 28.5l36 15v278q-138 -9 -209.5 -28t-101 -55t-29.5 -101z" />
<glyph unicode="&#xe1;" horiz-adv-x="946" d="M80 281q0 172 127 245q64 37 163.5 49.5t250.5 12.5v33q0 67 -3 96t-19 60t-52 40.5t-101 9.5q-113 0 -284 -32l-21 127q235 69 396 69q168 0 231 -90q29 -41 39 -102t10 -197v-602h-188v88q-98 -58 -167 -84.5t-130 -26.5q-107 0 -179.5 80t-72.5 224zM217 1202l453 182 l55 -174l-477 -110zM281 287q0 -75 34 -113.5t93 -38.5q35 0 88 14.5t89 28.5l36 15v278q-138 -9 -209.5 -28t-101 -55t-29.5 -101z" />
<glyph unicode="&#xe2;" horiz-adv-x="946" d="M80 281q0 172 127 245q64 37 163.5 49.5t250.5 12.5v33q0 67 -3 96t-19 60t-52 40.5t-101 9.5q-113 0 -284 -32l-21 127q235 69 396 69q168 0 231 -90q29 -41 39 -102t10 -197v-602h-188v88q-98 -58 -167 -84.5t-130 -26.5q-107 0 -179.5 80t-72.5 224zM150 1192l315 192 l323 -194l-53 -94l-268 104l-264 -100zM281 287q0 -75 34 -113.5t93 -38.5q35 0 88 14.5t89 28.5l36 15v278q-138 -9 -209.5 -28t-101 -55t-29.5 -101z" />
<glyph unicode="&#xe3;" horiz-adv-x="946" d="M80 281q0 172 127 245q64 37 163.5 49.5t250.5 12.5v33q0 67 -3 96t-19 60t-52 40.5t-101 9.5q-113 0 -284 -32l-21 127q235 69 396 69q168 0 231 -90q29 -41 39 -102t10 -197v-602h-188v88q-98 -58 -167 -84.5t-130 -26.5q-107 0 -179.5 80t-72.5 224zM162 1194 q56 70 110.5 102.5t116.5 32.5q48 0 135 -33q64 -22 84 -22q40 0 105 57l80 -74q-63 -74 -115 -104.5t-115 -30.5q-54 0 -133 35q-59 25 -84 25q-45 0 -104 -62zM281 287q0 -75 34 -113.5t93 -38.5q35 0 88 14.5t89 28.5l36 15v278q-138 -9 -209.5 -28t-101 -55t-29.5 -101z " />
<glyph unicode="&#xe4;" horiz-adv-x="946" d="M80 281q0 172 127 245q64 37 163.5 49.5t250.5 12.5v33q0 67 -3 96t-19 60t-52 40.5t-101 9.5q-113 0 -284 -32l-21 127q235 69 396 69q168 0 231 -90q29 -41 39 -102t10 -197v-602h-188v88q-98 -58 -167 -84.5t-130 -26.5q-107 0 -179.5 80t-72.5 224zM182 1270 q0 42 31 72t74 30t72.5 -29.5t29.5 -72.5t-30 -74t-72 -31q-43 0 -74 31t-31 74zM281 287q0 -75 34 -113.5t93 -38.5q35 0 88 14.5t89 28.5l36 15v278q-138 -9 -209.5 -28t-101 -55t-29.5 -101zM565 1270q0 42 31 72t74 30t72.5 -29.5t29.5 -72.5t-30 -74t-72 -31 q-43 0 -74 31t-31 74z" />
<glyph unicode="&#xe5;" horiz-adv-x="946" d="M80 281q0 172 127 245q64 37 163.5 49.5t250.5 12.5v33q0 67 -3 96t-19 60t-52 40.5t-101 9.5q-113 0 -284 -32l-21 127q235 69 396 69q168 0 231 -90q29 -41 39 -102t10 -197v-602h-188v88q-98 -58 -167 -84.5t-130 -26.5q-107 0 -179.5 80t-72.5 224zM281 287 q0 -75 34 -113.5t93 -38.5q35 0 88 14.5t89 28.5l36 15v278q-138 -9 -209.5 -28t-101 -55t-29.5 -101zM287 1241q0 78 56 134.5t134 56.5t134.5 -56.5t56.5 -134.5q0 -80 -56 -136t-135 -56t-134.5 56t-55.5 136zM375 1241q0 -43 30 -75.5t72 -32.5t71.5 32.5t29.5 75.5 t-29.5 75t-71.5 32t-72 -32t-30 -75z" />
<glyph unicode="&#xe6;" horiz-adv-x="1492" d="M80 274q0 219 178 271q106 33 365 33v36q0 37 -1 58.5t-4.5 47.5t-11 40t-20.5 29t-32.5 22t-47 11.5t-64.5 4.5q-113 0 -284 -32l-21 127q235 69 395 69q180 0 236 -119q36 53 113.5 86t156.5 33q184 0 282.5 -123.5t98.5 -363.5v-45h-608v-33q0 -283 240 -283 q64 0 131.5 14t189.5 52l35 -119q-149 -65 -235.5 -89t-172.5 -24q-49 0 -94 12t-74.5 28.5t-52 33.5t-32.5 29l-11 12q-255 -115 -401 -115q-108 0 -181 78t-73 219zM281 276q0 -73 36.5 -109t100.5 -36q91 0 254 55q-5 9 -12.5 25t-21 71t-17.5 115l-3 62 q-135 -7 -207 -26.5t-101 -55.5t-29 -101zM817 575l410 17q-6 134 -49 196t-134 62q-98 0 -156.5 -72t-70.5 -203z" />
<glyph unicode="&#xe7;" horiz-adv-x="864" d="M80 475q0 236 113.5 376t298.5 140q134 0 321 -65l-31 -127q-133 30 -233 30q-256 0 -256 -348q0 -165 62 -249.5t180 -84.5q99 0 260 50l39 -119q-99 -45 -183 -69t-116 -27l-7 -70q79 -2 114.5 -29.5t35.5 -93.5q0 -86 -44 -137t-116 -51q-74 0 -158 26l19 82 q51 -10 82 -10q43 0 61.5 17.5t18.5 58.5q0 55 -72 55q-32 0 -59 -4l16 154q-156 11 -251 138t-95 357z" />
<glyph unicode="&#xe8;" horiz-adv-x="972" d="M80 453q0 246 114.5 392t313.5 146q196 0 293.5 -120.5t97.5 -366.5v-45h-606v-33q0 -283 233 -283q66 0 136.5 15t189.5 53l37 -119q-151 -66 -239.5 -90.5t-176.5 -24.5q-180 0 -286.5 127t-106.5 349zM258 1210l53 174l455 -182l-31 -102zM299 575l410 17 q-3 132 -48 195t-137 63q-98 0 -155.5 -70t-69.5 -205z" />
<glyph unicode="&#xe9;" horiz-adv-x="972" d="M80 453q0 246 114.5 392t313.5 146q196 0 293.5 -120.5t97.5 -366.5v-45h-606v-33q0 -283 233 -283q66 0 136.5 15t189.5 53l37 -119q-151 -66 -239.5 -90.5t-176.5 -24.5q-180 0 -286.5 127t-106.5 349zM258 1202l453 182l55 -174l-477 -110zM299 575l410 17 q-3 132 -48 195t-137 63q-98 0 -155.5 -70t-69.5 -205z" />
<glyph unicode="&#xea;" horiz-adv-x="972" d="M80 453q0 246 114.5 392t313.5 146q196 0 293.5 -120.5t97.5 -366.5v-45h-606v-33q0 -283 233 -283q66 0 136.5 15t189.5 53l37 -119q-151 -66 -239.5 -90.5t-176.5 -24.5q-180 0 -286.5 127t-106.5 349zM184 1192l316 192l323 -194l-53 -94l-268 104l-264 -100zM299 575 l410 17q-3 132 -48 195t-137 63q-98 0 -155.5 -70t-69.5 -205z" />
<glyph unicode="&#xeb;" horiz-adv-x="972" d="M80 453q0 246 114.5 392t313.5 146q196 0 293.5 -120.5t97.5 -366.5v-45h-606v-33q0 -283 233 -283q66 0 136.5 15t189.5 53l37 -119q-151 -66 -239.5 -90.5t-176.5 -24.5q-180 0 -286.5 127t-106.5 349zM207 1270q0 43 30.5 72.5t73.5 29.5t73 -29.5t30 -72.5t-30 -74 t-73 -31t-73.5 31t-30.5 74zM299 575l410 17q-3 132 -48 195t-137 63q-98 0 -155.5 -70t-69.5 -205zM590 1270q0 43 30.5 72.5t73.5 29.5t73 -29.5t30 -72.5t-30 -74t-73 -31t-73.5 31t-30.5 74z" />
<glyph unicode="&#xec;" horiz-adv-x="483" d="M-14 1210l53 174l455 -182l-31 -102zM141 0v969h201v-969h-201z" />
<glyph unicode="&#xed;" horiz-adv-x="483" d="M-14 1202l452 182l56 -174l-478 -110zM141 0v969h201v-969h-201z" />
<glyph unicode="&#xee;" horiz-adv-x="483" d="M-80 1192l316 192l323 -194l-53 -94l-268 104l-265 -100zM141 0v969h201v-969h-201z" />
<glyph unicode="&#xef;" horiz-adv-x="483" d="M-55 1270q0 43 30.5 72.5t73.5 29.5t73 -29.5t30 -72.5t-30 -74t-73 -31t-73.5 31t-30.5 74zM141 0v969h201v-969h-201zM328 1270q0 43 30.5 72.5t73.5 29.5t73 -29.5t30 -72.5t-30 -74t-73 -31t-73.5 31t-30.5 74z" />
<glyph unicode="&#xf0;" horiz-adv-x="1046" d="M80 475q0 231 98.5 364.5t265.5 133.5q72 0 137.5 -23.5t159.5 -79.5q-25 91 -51 148.5t-67 109.5l-19 -6l-203 -73l-39 127l154 57q-125 90 -360 117l20 118q186 -11 303 -53t211 -119l221 82l45 -129l-163 -59q94 -116 134 -245.5t40 -311.5q0 -317 -120.5 -486.5 t-352.5 -169.5q-189 0 -301.5 132.5t-112.5 365.5zM293 475q0 -169 56 -258.5t163 -89.5q133 0 195 156q55 132 55 340q0 71 -8 118q-141 60 -244 60q-107 0 -162 -83t-55 -243z" />
<glyph unicode="&#xf1;" horiz-adv-x="1067" d="M141 0v969h191v-82q204 104 342 104q149 0 217 -100q29 -43 38 -92.5t9 -165.5v-633h-201v590q0 33 -0.5 48.5t-2 42.5t-5.5 40t-10.5 32t-17.5 28t-26 19t-36.5 13.5t-48.5 3.5q-115 0 -248 -47v-770h-201zM213 1194q56 70 110.5 102.5t116.5 32.5q48 0 135 -33 q64 -22 84 -22q40 0 105 57l80 -74q-63 -74 -115 -104.5t-115 -30.5q-54 0 -133 35q-59 25 -84 25q-45 0 -104 -62z" />
<glyph unicode="&#xf2;" horiz-adv-x="1056" d="M80 485q0 236 119 371t329 135q217 0 333 -131t116 -375q0 -243 -116.5 -373t-332.5 -130q-214 0 -331 132t-117 371zM272 1210l54 174l454 -182l-30 -102zM293 487q0 -187 57 -270.5t180 -83.5t178.5 82.5t55.5 267.5q0 187 -55.5 272t-180.5 85q-120 0 -177.5 -86 t-57.5 -267z" />
<glyph unicode="&#xf3;" horiz-adv-x="1056" d="M80 485q0 236 119 371t329 135q217 0 333 -131t116 -375q0 -243 -116.5 -373t-332.5 -130q-214 0 -331 132t-117 371zM272 1202l453 182l55 -174l-477 -110zM293 487q0 -187 57 -270.5t180 -83.5t178.5 82.5t55.5 267.5q0 187 -55.5 272t-180.5 85q-120 0 -177.5 -86 t-57.5 -267z" />
<glyph unicode="&#xf4;" horiz-adv-x="1056" d="M80 485q0 236 119 371t329 135q217 0 333 -131t116 -375q0 -243 -116.5 -373t-332.5 -130q-214 0 -331 132t-117 371zM207 1192l315 192l324 -194l-53 -94l-269 104l-264 -100zM293 487q0 -187 57 -270.5t180 -83.5t178.5 82.5t55.5 267.5q0 187 -55.5 272t-180.5 85 q-120 0 -177.5 -86t-57.5 -267z" />
<glyph unicode="&#xf5;" horiz-adv-x="1056" d="M80 485q0 236 119 371t329 135q217 0 333 -131t116 -375q0 -243 -116.5 -373t-332.5 -130q-214 0 -331 132t-117 371zM211 1194q56 70 110.5 102.5t116.5 32.5q48 0 135 -33q64 -22 84 -22q40 0 105 57l80 -74q-63 -74 -115 -104.5t-115 -30.5q-54 0 -133 35 q-59 25 -84 25q-45 0 -104 -62zM293 487q0 -187 57 -270.5t180 -83.5t178.5 82.5t55.5 267.5q0 187 -55.5 272t-180.5 85q-120 0 -177.5 -86t-57.5 -267z" />
<glyph unicode="&#xf6;" horiz-adv-x="1056" d="M80 485q0 236 119 371t329 135q217 0 333 -131t116 -375q0 -243 -116.5 -373t-332.5 -130q-214 0 -331 132t-117 371zM231 1270q0 42 31 72t74 30t72.5 -29.5t29.5 -72.5t-30 -74t-72 -31q-43 0 -74 31t-31 74zM293 487q0 -187 57 -270.5t180 -83.5t178.5 82.5 t55.5 267.5q0 187 -55.5 272t-180.5 85q-120 0 -177.5 -86t-57.5 -267zM614 1270q0 42 31 72t74 30t72.5 -29.5t29.5 -72.5t-30 -74t-72 -31q-43 0 -74 31t-31 74z" />
<glyph unicode="&#xf7;" d="M92 504v151h955v-151h-955zM459 174q0 46 32 78.5t78 32.5t78.5 -32.5t32.5 -78.5t-32.5 -78.5t-78.5 -32.5t-78 32.5t-32 78.5zM459 985q0 46 32 78.5t78 32.5t78.5 -32.5t32.5 -78.5t-32.5 -78.5t-78.5 -32.5t-78 32.5t-32 78.5z" />
<glyph unicode="&#xf8;" horiz-adv-x="1056" d="M80 485q0 236 119 371t329 135q75 0 136 -15.5t84 -30.5l24 -15l92 123l109 -82l-96 -129q4 -5 11 -13.5t24 -41t30 -70.5t24 -100.5t11 -131.5q0 -243 -116.5 -373t-332.5 -130q-46 0 -88.5 6.5t-69.5 16t-47 18.5t-29 15l-9 7l-95 -129l-108 82l100 135q-4 4 -11 13 t-24.5 40.5t-31 68.5t-24.5 99t-11 131zM293 487q0 -54 5 -99t10 -63l5 -18l361 488q-5 5 -15 12.5t-48 20t-83 12.5q-120 0 -177.5 -86t-57.5 -267zM385 178q4 -5 13.5 -12.5t47 -20t84.5 -12.5q123 0 178.5 82.5t55.5 267.5q0 56 -5 101t-9 62l-5 18z" />
<glyph unicode="&#xf9;" horiz-adv-x="1067" d="M129 330v639h201v-590q0 -33 0.5 -48.5t2 -42.5t5.5 -40t10.5 -32t17.5 -28t26 -19t36.5 -13.5t48.5 -3.5q115 0 248 47v770h201v-969h-191v82q-206 -105 -338 -105q-151 0 -219 97q-30 43 -39.5 95.5t-9.5 160.5zM274 1210l54 174l454 -182l-30 -102z" />
<glyph unicode="&#xfa;" horiz-adv-x="1067" d="M129 330v639h201v-590q0 -33 0.5 -48.5t2 -42.5t5.5 -40t10.5 -32t17.5 -28t26 -19t36.5 -13.5t48.5 -3.5q115 0 248 47v770h201v-969h-191v82q-206 -105 -338 -105q-151 0 -219 97q-30 43 -39.5 95.5t-9.5 160.5zM274 1202l453 182l55 -174l-477 -110z" />
<glyph unicode="&#xfb;" horiz-adv-x="1067" d="M129 330v639h201v-590q0 -33 0.5 -48.5t2 -42.5t5.5 -40t10.5 -32t17.5 -28t26 -19t36.5 -13.5t48.5 -3.5q115 0 248 47v770h201v-969h-191v82q-206 -105 -338 -105q-151 0 -219 97q-30 43 -39.5 95.5t-9.5 160.5zM207 1192l315 192l324 -194l-53 -94l-269 104l-264 -100 z" />
<glyph unicode="&#xfc;" horiz-adv-x="1067" d="M129 330v639h201v-590q0 -33 0.5 -48.5t2 -42.5t5.5 -40t10.5 -32t17.5 -28t26 -19t36.5 -13.5t48.5 -3.5q115 0 248 47v770h201v-969h-191v82q-206 -105 -338 -105q-151 0 -219 97q-30 43 -39.5 95.5t-9.5 160.5zM236 1270q0 43 30.5 72.5t73.5 29.5t72.5 -29.5 t29.5 -72.5t-30 -74t-72 -31q-43 0 -73.5 31t-30.5 74zM618 1270q0 42 31 72t74 30t72.5 -29.5t29.5 -72.5t-30 -74t-72 -31q-43 0 -74 31t-31 74z" />
<glyph unicode="&#xfd;" horiz-adv-x="942" d="M8 969h221l277 -733l246 733h182l-404 -1090q-47 -129 -89 -192t-96.5 -88t-147.5 -25q-71 0 -148 14l14 127q37 -4 82 -4q37 0 57 1t42 11t32.5 19.5t28 40t29.5 58t37 87.5l32 80zM217 1202l453 182l55 -174l-477 -110z" />
<glyph unicode="&#xfe;" horiz-adv-x="1064" d="M141 -410v1864h201v-567q181 104 315 104q154 0 241 -133.5t87 -368.5q0 -232 -97 -372t-257 -140q-48 0 -105.5 20t-90 37.5t-93.5 53.5v-498h-201zM342 207q94 -33 137 -44t86 -11q102 0 154.5 82.5t52.5 244.5q0 340 -201 340q-69 0 -229 -55v-557z" />
<glyph unicode="&#xff;" horiz-adv-x="942" d="M8 969h221l277 -733l246 733h182l-404 -1090q-47 -129 -89 -192t-96.5 -88t-147.5 -25q-71 0 -148 14l14 127q37 -4 82 -4q37 0 57 1t42 11t32.5 19.5t28 40t29.5 58t37 87.5l32 80zM176 1270q0 42 31 72t74 30t72.5 -29.5t29.5 -72.5t-30 -74t-72 -31q-43 0 -74 31 t-31 74zM559 1270q0 42 31 72t74 30t72.5 -29.5t29.5 -72.5t-30 -74t-72 -31q-43 0 -74 31t-31 74z" />
<glyph unicode="&#x152;" horiz-adv-x="1792" d="M102 684q0 183 56 328.5t159 230.5q91 74 195.5 98.5t325.5 24.5h870v-154h-596v-421h584v-152h-584v-485h612v-154h-936q-163 0 -262 20.5t-172 69.5q-123 79 -187.5 231.5t-64.5 362.5zM328 684q0 -302 125 -430q58 -60 131 -80t233 -20h82v1058h-39q-174 0 -258.5 -22 t-144.5 -82q-129 -132 -129 -424z" />
<glyph unicode="&#x153;" horiz-adv-x="1634" d="M80 481q0 234 120 372t326 138q126 0 212 -49t124 -127q47 76 135 126t183 50q186 0 283.5 -123.5t97.5 -363.5v-45h-607v-33q0 -283 238 -283q64 0 131.5 14t189.5 52l35 -119q-150 -66 -236 -89.5t-171 -23.5q-98 0 -177 45t-116 115q-44 -71 -125 -113t-197 -42 q-211 0 -328.5 131.5t-117.5 367.5zM293 487q0 -187 56.5 -270.5t176.5 -83.5t176 83t56 267q0 186 -55.5 271.5t-176.5 85.5q-233 0 -233 -353zM958 575l412 17q-6 134 -49.5 196t-134.5 62q-97 0 -156.5 -72.5t-71.5 -202.5z" />
<glyph unicode="&#x178;" horiz-adv-x="1153" d="M8 1366h248l342 -604l338 604h209l-461 -766v-600h-213v600zM289 1622q0 43 30.5 72.5t73.5 29.5t73 -29.5t30 -72.5t-30 -73.5t-73 -30.5t-73.5 30.5t-30.5 73.5zM672 1622q0 43 30.5 72.5t73.5 29.5t73 -29.5t30 -72.5t-30 -73.5t-73 -30.5t-73.5 30.5t-30.5 73.5z" />
<glyph unicode="&#x2c6;" horiz-adv-x="761" d="M61 1192l316 192l323 -194l-53 -94l-268 104l-264 -100z" />
<glyph unicode="&#x2dc;" horiz-adv-x="761" d="M66 1194q56 70 110.5 102.5t116.5 32.5q48 0 135 -33q64 -22 84 -22q39 0 104 57l80 -74q-63 -74 -114.5 -104.5t-114.5 -30.5q-54 0 -133 35q-59 25 -84 25q-46 0 -105 -62z" />
<glyph unicode="&#x2000;" horiz-adv-x="915" />
<glyph unicode="&#x2001;" horiz-adv-x="1831" />
<glyph unicode="&#x2002;" horiz-adv-x="915" />
<glyph unicode="&#x2003;" horiz-adv-x="1831" />
<glyph unicode="&#x2004;" horiz-adv-x="610" />
<glyph unicode="&#x2005;" horiz-adv-x="457" />
<glyph unicode="&#x2006;" horiz-adv-x="305" />
<glyph unicode="&#x2007;" horiz-adv-x="305" />
<glyph unicode="&#x2008;" horiz-adv-x="228" />
<glyph unicode="&#x2009;" horiz-adv-x="366" />
<glyph unicode="&#x200a;" horiz-adv-x="101" />
<glyph unicode="&#x2010;" horiz-adv-x="813" d="M100 510v152h613v-152h-613z" />
<glyph unicode="&#x2011;" horiz-adv-x="813" d="M100 510v152h613v-152h-613z" />
<glyph unicode="&#x2012;" horiz-adv-x="813" d="M100 510v152h613v-152h-613z" />
<glyph unicode="&#x2013;" horiz-adv-x="1024" d="M35 510v152h954v-152h-954z" />
<glyph unicode="&#x2014;" horiz-adv-x="2048" d="M231 510v152h1586v-152h-1586z" />
<glyph unicode="&#x2018;" horiz-adv-x="512" d="M25 942l307 455l131 -64l-189 -391h-249z" />
<glyph unicode="&#x2019;" horiz-adv-x="512" d="M18 975l191 391h250l-307 -455z" />
<glyph unicode="&#x201a;" horiz-adv-x="512" d="M-12 -207l188 393h250l-307 -456z" />
<glyph unicode="&#x201c;" horiz-adv-x="888" d="M25 942l307 455l131 -64l-189 -391h-249zM399 942l310 455l131 -64l-189 -391h-252z" />
<glyph unicode="&#x201d;" horiz-adv-x="888" d="M18 975l191 391h250l-307 -455zM393 975l189 391h252l-310 -455z" />
<glyph unicode="&#x201e;" horiz-adv-x="888" d="M-12 -207l188 393h250l-307 -456zM362 -207l189 393h252l-309 -456z" />
<glyph unicode="&#x2022;" d="M381 580q0 78 55 133t133 55t133.5 -55t55.5 -133t-55.5 -133.5t-133.5 -55.5t-133 55.5t-55 133.5z" />
<glyph unicode="&#x2026;" horiz-adv-x="2048" d="M219 104q0 51 36 87t87 36t87 -36t36 -87t-36 -86.5t-87 -35.5t-87 35.5t-36 86.5zM901 104q0 51 36 87t87 36t87 -36t36 -87t-36 -86.5t-87 -35.5t-87 35.5t-36 86.5zM1583 104q0 51 36 87t87 36t87 -36t36 -87t-36 -86.5t-87 -35.5t-87 35.5t-36 86.5z" />
<glyph unicode="&#x202f;" horiz-adv-x="366" />
<glyph unicode="&#x2039;" horiz-adv-x="571" d="M37 489l319 424l129 -69l-198 -355l198 -356l-129 -70z" />
<glyph unicode="&#x203a;" horiz-adv-x="569" d="M86 133l197 356l-197 355l125 69l321 -424l-321 -426z" />
<glyph unicode="&#x205f;" horiz-adv-x="457" />
<glyph unicode="&#x20ac;" d="M70 442v123h151q-4 35 -4 113l4 96h-151v123h166q39 226 176.5 359t353.5 133q141 0 334 -54l-33 -151q-166 30 -270 30q-138 0 -223 -87t-113 -230h350v-123h-369q-2 -29 -2 -78q0 -37 1.5 -70t2.5 -47l2 -14h365v-123h-344q30 -134 108 -212t191 -78q64 0 129.5 12.5 t189.5 48.5l48 -147q-245 -93 -408 -93q-183 0 -314 126.5t-171 342.5h-170z" />
<glyph unicode="&#x2122;" horiz-adv-x="1626" d="M18 1251v115h613v-115h-230v-594h-145v594h-238zM694 657l31 709h154l219 -514l207 514h149l29 -709h-135l-17 465l-188 -465h-105l-198 471l-17 -471h-129z" />
<glyph unicode="&#xe000;" horiz-adv-x="972" d="M0 0v973h973v-973h-973z" />
</font>
</defs>
</svg>
